<?xml version="1.0" encoding="utf-8"?><svg viewBox="0 0 30 30" xmlns="http://www.w3.org/2000/svg" xmlns:xlink="http://www.w3.org/1999/xlink"><style>:root>svg{display:none}:root>svg:target{display:block}</style><svg fill="none" viewBox="0 0 30 30" id="ic-search" xmlns="http://www.w3.org/2000/svg"><path d="M19.375 17.5h-.988l-.35-.337A8.089 8.089 0 0 0 20 11.875 8.125 8.125 0 1 0 11.875 20a8.089 8.089 0 0 0 5.288-1.962l.337.35v.987l6.25 6.238 1.863-1.863-6.238-6.25Zm-7.5 0a5.617 5.617 0 0 1-5.625-5.625 5.617 5.617 0 0 1 5.625-5.625 5.617 5.617 0 0 1 5.625 5.625 5.617 5.617 0 0 1-5.625 5.625Z" fill="#fff"/></svg><svg fill="none" viewBox="0 0 20 20" id="ion_document-text" xmlns="http://www.w3.org/2000/svg"><g fill="#BD0007"><path d="M16.719 8.75H11.25a1.875 1.875 0 0 1-1.875-1.875V1.406a.156.156 0 0 0-.156-.156H5.625a2.5 2.5 0 0 0-2.5 2.5v12.5a2.5 2.5 0 0 0 2.5 2.5h8.75a2.5 2.5 0 0 0 2.5-2.5V8.906a.156.156 0 0 0-.156-.156ZM13.125 15h-6.25a.625.625 0 1 1 0-1.25h6.25a.624.624 0 1 1 0 1.25Zm0-3.125h-6.25a.625.625 0 1 1 0-1.25h6.25a.624.624 0 1 1 0 1.25Z"/><path d="m16.376 7.367-5.618-5.618a.078.078 0 0 0-.133.055v5.071a.625.625 0 0 0 .625.625h5.07a.078.078 0 0 0 .056-.133Z"/></g></svg></svg>